<svg width="158" height="49" viewBox="0 0 158 49" fill="none" xmlns="http://www.w3.org/2000/svg">
<path d="M27.3515 36.9676V10.141C27.3515 8.84386 28.059 8.31322 29.3561 8.13634L32.9527 7.42883C34.2498 7.19299 35.0162 8.13634 35.0162 9.43345V36.9086C35.0162 38.2057 34.2498 38.9132 33.0116 38.9132H29.4151C28.059 38.9722 27.3515 38.2647 27.3515 36.9676Z" fill="#00E169"/>
<path d="M60.5457 18.6902V36.9676C60.5457 38.2647 59.8382 38.9723 58.5411 38.9723H56.3596C55.0625 38.9723 54.355 38.2058 54.355 36.9676V36.0832C53.0579 38.0879 50.9353 39.5618 47.7515 39.5618C42.2683 39.5618 38.6128 35.9653 38.6128 30.541V18.6902C38.6128 17.3931 39.3793 16.6855 40.6764 16.6855H44.2729C45.57 16.6855 46.3365 17.452 46.3365 18.6902V29.4208C46.3365 31.5434 47.5746 33.0173 49.5793 33.0173C51.6428 33.0173 52.881 31.5434 52.881 29.3618V18.6902C52.881 17.3931 53.5885 16.6855 54.8856 16.6855H58.5411C59.8382 16.6855 60.5457 17.3931 60.5457 18.6902Z" fill="#00E169"/>
<path d="M63.6116 36.437C62.6093 35.4936 62.3734 34.6682 63.4347 33.489L64.496 32.1919C65.4983 30.9538 66.5006 31.3075 67.444 31.9561C68.918 33.0763 70.9226 33.9017 72.9272 33.9017C74.2243 33.9017 74.9908 33.4301 74.9908 32.6046C74.9908 31.5433 73.6347 31.0717 72.2197 30.6C68.2694 29.4208 63.8474 28.0058 63.8474 23.289C63.8474 18.985 67.385 16.3318 72.9272 16.3318C76.111 16.3318 79.5307 17.452 81.0636 18.7491C82.0659 19.6335 82.2428 20.459 81.1815 21.7561L80.2382 22.8763C79.4717 23.8196 78.4104 23.8196 77.4081 23.2301C76.17 22.3457 74.7549 21.7561 72.9862 21.7561C71.748 21.7561 71.0405 22.2277 71.0405 22.9353C71.0405 24.0555 73.0451 24.4092 75.8752 25.4116C79.4717 26.8266 82.1838 28.6543 82.1838 32.4867C82.1838 36.9676 78.3515 39.6208 72.8682 39.6208C68.9769 39.6208 65.3804 38.0879 63.6116 36.437Z" fill="#00E169"/>
<path d="M107.831 9.49244V36.9676C107.831 38.2647 107.124 38.9722 105.827 38.9722H103.468C102.171 38.9722 101.405 38.2057 101.405 36.9676V36.7907C99.6948 38.5005 97.3954 39.5618 94.5064 39.5618C88.1388 39.5618 83.481 34.4913 83.481 27.9468C83.481 21.4023 88.1388 16.3317 94.5064 16.3317C96.6289 16.3317 98.5156 16.9213 100.108 17.8647V10.2C100.108 8.90284 100.815 8.37221 102.112 8.19533L105.709 7.54677C107.124 7.31094 107.831 8.19533 107.831 9.49244ZM100.52 27.9468C100.52 24.8809 98.4567 22.8763 95.8035 22.8763C93.0324 22.8763 91.0278 25.1167 91.0278 27.9468C91.0278 30.8358 93.0324 33.0173 95.8035 33.0173C98.4567 33.0173 100.52 31.0127 100.52 27.9468Z" fill="#00E169"/>
<path d="M110.897 4.59884C110.897 2.00462 112.961 0 115.496 0C118.09 0 120.095 2.00462 120.095 4.59884C120.095 7.1341 118.09 9.19769 115.496 9.19769C112.961 9.19769 110.897 7.1341 110.897 4.59884ZM111.664 36.9676V18.6902C111.664 17.3931 112.371 16.6855 113.727 16.6855H117.324C118.621 16.6855 119.387 17.452 119.387 18.6902V36.9676C119.387 38.2647 118.621 38.9723 117.324 38.9723H113.727C112.371 38.9723 111.664 38.2647 111.664 36.9676Z" fill="#00E169"/>
<path d="M145.506 25.9422V36.9676C145.506 38.2647 144.74 38.9722 143.502 38.9722H139.905C138.608 38.9722 137.901 38.2058 137.901 36.9676V26.5318C137.901 24.2913 136.604 22.8173 134.422 22.8173C132.241 22.8173 130.826 24.2913 130.826 26.5318V36.9676C130.826 38.2647 130.118 38.9722 128.821 38.9722H125.165C123.868 38.9722 123.161 38.2058 123.161 36.9676V18.6902C123.161 17.3931 123.868 16.6855 125.165 16.6855H127.524C128.821 16.6855 129.528 17.452 129.528 18.6902V19.8694C131.002 17.8058 133.184 16.3318 136.427 16.3318C141.674 16.3318 145.506 20.0462 145.506 25.9422Z" fill="#00E169"/>
<path d="M148.454 34.904C148.454 32.3688 150.459 30.3052 153.053 30.3052C155.589 30.3052 157.652 32.3688 157.652 34.904C157.652 37.4393 155.589 39.5029 153.053 39.5029C150.518 39.5029 148.454 37.4393 148.454 34.904Z" fill="#00E169"/>
<path d="M0.583862 46.4011V18.926C0.583862 17.6289 1.29138 16.9214 2.58849 16.9214H4.94687C6.24398 16.9214 7.01045 17.6879 7.01045 18.926V19.1029C8.72028 17.3931 11.0197 16.3318 13.9087 16.3318C20.2763 16.3318 24.9342 21.4023 24.9342 27.9468C24.9342 34.4913 20.2763 39.5618 13.9087 39.5618C11.7862 39.5618 9.89947 38.9722 8.30756 38.0289V45.6936C8.30756 46.9907 7.60005 47.5214 6.30294 47.6983L2.70641 48.3468C1.29138 48.5827 0.583862 47.6983 0.583862 46.4011ZM7.89484 27.9468C7.89484 31.0127 9.95843 33.0173 12.6116 33.0173C15.3827 33.0173 17.3873 30.7769 17.3873 27.9468C17.3873 25.0578 15.3827 22.8763 12.6116 22.8763C9.89947 22.8763 7.89484 24.822 7.89484 27.9468Z" fill="#00E169"/>
</svg>
